<svg width="512" height="512" viewBox="0 0 512 512" fill="none" xmlns="http://www.w3.org/2000/svg">
  <rect width="512" height="512" rx="120" fill="#0B0F14"/>
  <path d="M104.0,134.0Q104.0,104.0 134.0,104.0L360.0,104.0Q372.0,104.0 372.0,116.0L372.0,144.0Q372.0,156.0 360.0,156.0L172.0,156.0Q156.0,156.0 156.0,172.0L156.0,360.0Q156.0,372.0 144.0,372.0L116.0,372.0Q104.0,372.0 104.0,360.0Z" fill="#F1E9DE"/>
  <path d="M408.0,378.0Q408.0,408.0 378.0,408.0L152.0,408.0Q140.0,408.0 140.0,396.0L140.0,368.0Q140.0,356.0 152.0,356.0L340.0,356.0Q356.0,356.0 356.0,340.0L356.0,152.0Q356.0,140.0 368.0,140.0L396.0,140.0Q408.0,140.0 408.0,152.0Z" fill="#F1E9DE"/>
  <circle cx="256" cy="256" r="33" fill="#E08A45"/>
</svg>
