<svg
  width="348"
  height="322"
  viewBox="82 88 348 322"
  xmlns="http://www.w3.org/2000/svg"
  aria-hidden="true"
>
  <defs>
    <linearGradient id="litTag" x1="0" y1="0" x2="0" y2="1">
      <stop offset="0"   stop-color="#FFCD96"/>
      <stop offset="0.4" stop-color="#FA6104"/>
      <stop offset="1"   stop-color="#B23A02"/>
    </linearGradient>
  </defs>

  <g>
    <!-- rail across a dead rack -->
    <rect x="92" y="96" width="328" height="4" rx="2" fill="#2A211A"/>
    <rect x="92" y="96" width="328" height="4" rx="2" fill="#FA6104" opacity="0.12"/>
    <circle cx="120.0" cy="98.0" r="3.2" fill="none" stroke="#516C71" stroke-width="1.6"/>
    <line x1="120.0" y1="101.0" x2="120.0" y2="108.0" stroke="#33454A" stroke-width="1.2"/>
    <rect x="113.5" y="108.0" width="13" height="58.0" rx="3" fill="#0B0F12" stroke="#3A4A4E" stroke-width="1.1" stroke-opacity="0.9"/>
    <line x1="116.5" y1="120.0" x2="123.5" y2="120.0" stroke="#46666B" stroke-width="1" stroke-opacity="0.5"/>
    <line x1="116.5" y1="127.0" x2="123.5" y2="127.0" stroke="#46666B" stroke-width="1" stroke-opacity="0.5"/>
    <line x1="116.5" y1="134.0" x2="123.5" y2="134.0" stroke="#46666B" stroke-width="1" stroke-opacity="0.5"/>
    <circle cx="147.2" cy="98.0" r="3.2" fill="none" stroke="#516C71" stroke-width="1.6"/>
    <line x1="147.2" y1="101.0" x2="147.2" y2="108.0" stroke="#33454A" stroke-width="1.2"/>
    <rect x="140.7" y="108.0" width="13" height="82.2" rx="3" fill="#0B0F12" stroke="#3A4A4E" stroke-width="1.1" stroke-opacity="0.9"/>
    <line x1="143.7" y1="120.0" x2="150.7" y2="120.0" stroke="#46666B" stroke-width="1" stroke-opacity="0.5"/>
    <line x1="143.7" y1="127.0" x2="150.7" y2="127.0" stroke="#46666B" stroke-width="1" stroke-opacity="0.5"/>
    <line x1="143.7" y1="134.0" x2="150.7" y2="134.0" stroke="#46666B" stroke-width="1" stroke-opacity="0.5"/>
    <circle cx="174.4" cy="98.0" r="3.2" fill="none" stroke="#516C71" stroke-width="1.6"/>
    <line x1="174.4" y1="101.0" x2="174.4" y2="108.0" stroke="#33454A" stroke-width="1.2"/>
    <rect x="167.9" y="108.0" width="13" height="106.4" rx="3" fill="#0B0F12" stroke="#3A4A4E" stroke-width="1.1" stroke-opacity="0.9"/>
    <line x1="170.9" y1="120.0" x2="177.9" y2="120.0" stroke="#46666B" stroke-width="1" stroke-opacity="0.5"/>
    <line x1="170.9" y1="127.0" x2="177.9" y2="127.0" stroke="#46666B" stroke-width="1" stroke-opacity="0.5"/>
    <line x1="170.9" y1="134.0" x2="177.9" y2="134.0" stroke="#46666B" stroke-width="1" stroke-opacity="0.5"/>
    <circle cx="174.4" cy="207.4" r="1.7" fill="#26B9C1" opacity="0.35"/>
    <circle cx="201.6" cy="98.0" r="3.2" fill="none" stroke="#516C71" stroke-width="1.6"/>
    <line x1="201.6" y1="101.0" x2="201.6" y2="108.0" stroke="#33454A" stroke-width="1.2"/>
    <rect x="195.1" y="108.0" width="13" height="130.6" rx="3" fill="#0B0F12" stroke="#3A4A4E" stroke-width="1.1" stroke-opacity="0.9"/>
    <line x1="198.1" y1="120.0" x2="205.1" y2="120.0" stroke="#46666B" stroke-width="1" stroke-opacity="0.5"/>
    <line x1="198.1" y1="127.0" x2="205.1" y2="127.0" stroke="#46666B" stroke-width="1" stroke-opacity="0.5"/>
    <line x1="198.1" y1="134.0" x2="205.1" y2="134.0" stroke="#46666B" stroke-width="1" stroke-opacity="0.5"/>
    <circle cx="228.8" cy="98.0" r="3.2" fill="none" stroke="#516C71" stroke-width="1.6"/>
    <line x1="228.8" y1="101.0" x2="228.8" y2="108.0" stroke="#33454A" stroke-width="1.2"/>
    <rect x="222.3" y="108.0" width="13" height="154.8" rx="3" fill="#0B0F12" stroke="#3A4A4E" stroke-width="1.1" stroke-opacity="0.9"/>
    <line x1="225.3" y1="120.0" x2="232.3" y2="120.0" stroke="#46666B" stroke-width="1" stroke-opacity="0.5"/>
    <line x1="225.3" y1="127.0" x2="232.3" y2="127.0" stroke="#46666B" stroke-width="1" stroke-opacity="0.5"/>
    <line x1="225.3" y1="134.0" x2="232.3" y2="134.0" stroke="#46666B" stroke-width="1" stroke-opacity="0.5"/>
    <circle cx="256.0" cy="98.0" r="3.2" fill="none" stroke="#516C71" stroke-width="1.6"/>
    <line x1="256.0" y1="101.0" x2="256.0" y2="108.0" stroke="#33454A" stroke-width="1.2"/>
    <rect x="249.5" y="108.0" width="13" height="179.0" rx="3" fill="#0B0F12" stroke="#3A4A4E" stroke-width="1.1" stroke-opacity="0.9"/>
    <line x1="252.5" y1="120.0" x2="259.5" y2="120.0" stroke="#46666B" stroke-width="1" stroke-opacity="0.5"/>
    <line x1="252.5" y1="127.0" x2="259.5" y2="127.0" stroke="#46666B" stroke-width="1" stroke-opacity="0.5"/>
    <line x1="252.5" y1="134.0" x2="259.5" y2="134.0" stroke="#46666B" stroke-width="1" stroke-opacity="0.5"/>
    <circle cx="283.2" cy="98.0" r="3.2" fill="none" stroke="#516C71" stroke-width="1.6"/>
    <line x1="283.2" y1="101.0" x2="283.2" y2="108.0" stroke="#33454A" stroke-width="1.2"/>
    <rect x="276.7" y="108.0" width="13" height="203.2" rx="3" fill="#0B0F12" stroke="#3A4A4E" stroke-width="1.1" stroke-opacity="0.9"/>
    <line x1="279.7" y1="120.0" x2="286.7" y2="120.0" stroke="#46666B" stroke-width="1" stroke-opacity="0.5"/>
    <line x1="279.7" y1="127.0" x2="286.7" y2="127.0" stroke="#46666B" stroke-width="1" stroke-opacity="0.5"/>
    <line x1="279.7" y1="134.0" x2="286.7" y2="134.0" stroke="#46666B" stroke-width="1" stroke-opacity="0.5"/>
    <circle cx="283.2" cy="304.2" r="1.7" fill="#26B9C1" opacity="0.35"/>
    <circle cx="310.4" cy="98.0" r="3.2" fill="none" stroke="#516C71" stroke-width="1.6"/>
    <line x1="310.4" y1="101.0" x2="310.4" y2="108.0" stroke="#33454A" stroke-width="1.2"/>
    <rect x="303.9" y="108.0" width="13" height="227.4" rx="3" fill="#0B0F12" stroke="#3A4A4E" stroke-width="1.1" stroke-opacity="0.9"/>
    <line x1="306.9" y1="120.0" x2="313.9" y2="120.0" stroke="#46666B" stroke-width="1" stroke-opacity="0.5"/>
    <line x1="306.9" y1="127.0" x2="313.9" y2="127.0" stroke="#46666B" stroke-width="1" stroke-opacity="0.5"/>
    <line x1="306.9" y1="134.0" x2="313.9" y2="134.0" stroke="#46666B" stroke-width="1" stroke-opacity="0.5"/>
    <circle cx="337.6" cy="98.0" r="3.2" fill="none" stroke="#FFCD96" stroke-width="1.6"/>
    <line x1="337.6" y1="101.0" x2="337.6" y2="108.0" stroke="#FA6104" stroke-width="1.2"/>
    <rect x="331.1" y="108.0" width="13" height="251.6" rx="3" fill="url(#litTag)" stroke="#FFD9B0" stroke-width="1.4"/>
    <line x1="334.1" y1="120.0" x2="341.1" y2="120.0" stroke="#7A2A02" stroke-width="1.1"/>
    <line x1="334.1" y1="127.0" x2="341.1" y2="127.0" stroke="#7A2A02" stroke-width="1.1"/>
    <line x1="334.1" y1="134.0" x2="341.1" y2="134.0" stroke="#7A2A02" stroke-width="1.1"/>
    <circle cx="337.6" cy="352.6" r="2" fill="#FFE9D2"/>
    <circle cx="364.8" cy="98.0" r="3.2" fill="none" stroke="#516C71" stroke-width="1.6"/>
    <line x1="364.8" y1="101.0" x2="364.8" y2="108.0" stroke="#33454A" stroke-width="1.2"/>
    <rect x="358.3" y="108.0" width="13" height="275.8" rx="3" fill="#0B0F12" stroke="#3A4A4E" stroke-width="1.1" stroke-opacity="0.9"/>
    <line x1="361.3" y1="120.0" x2="368.3" y2="120.0" stroke="#46666B" stroke-width="1" stroke-opacity="0.5"/>
    <line x1="361.3" y1="127.0" x2="368.3" y2="127.0" stroke="#46666B" stroke-width="1" stroke-opacity="0.5"/>
    <line x1="361.3" y1="134.0" x2="368.3" y2="134.0" stroke="#46666B" stroke-width="1" stroke-opacity="0.5"/>
    <circle cx="392.0" cy="98.0" r="3.2" fill="none" stroke="#516C71" stroke-width="1.6"/>
    <line x1="392.0" y1="101.0" x2="392.0" y2="108.0" stroke="#33454A" stroke-width="1.2"/>
    <rect x="385.5" y="108.0" width="13" height="300.0" rx="3" fill="#0B0F12" stroke="#3A4A4E" stroke-width="1.1" stroke-opacity="0.9"/>
    <line x1="388.5" y1="120.0" x2="395.5" y2="120.0" stroke="#46666B" stroke-width="1" stroke-opacity="0.5"/>
    <line x1="388.5" y1="127.0" x2="395.5" y2="127.0" stroke="#46666B" stroke-width="1" stroke-opacity="0.5"/>
    <line x1="388.5" y1="134.0" x2="395.5" y2="134.0" stroke="#46666B" stroke-width="1" stroke-opacity="0.5"/>
  </g>
</svg>
